<svg xmlns="http://www.w3.org/2000/svg" width="512" height="512" viewBox="0 0 512 512">
  <defs>
    <linearGradient id="bg" x1="0%" y1="0%" x2="100%" y2="100%">
      <stop offset="0%" style="stop-color:#4A6B4C;stop-opacity:1" />
      <stop offset="100%" style="stop-color:#2D4A2F;stop-opacity:1" />
    </linearGradient>
    <linearGradient id="leaf" x1="0%" y1="0%" x2="100%" y2="100%">
      <stop offset="0%" style="stop-color:#8FBC8F;stop-opacity:1" />
      <stop offset="100%" style="stop-color:#228B22;stop-opacity:1" />
    </linearGradient>
  </defs>
  
  <!-- Background circle -->
  <circle cx="256" cy="256" r="240" fill="url(#bg)" stroke="#1F3A1F" stroke-width="8"/>
  
  <!-- Main leaf -->
  <path d="M256 120 Q320 160 340 220 Q330 280 280 300 Q240 290 220 250 Q210 200 256 120 Z" 
        fill="url(#leaf)" stroke="#1F3A1F" stroke-width="3"/>
  
  <!-- Leaf vein -->
  <path d="M256 120 Q270 180 280 240 Q275 280 280 300" 
        fill="none" stroke="#1F3A1F" stroke-width="2"/>
  
  <!-- Side leaves -->
  <path d="M200 200 Q170 220 160 250 Q170 280 200 290 Q230 280 240 250 Q230 220 200 200 Z" 
        fill="url(#leaf)" stroke="#1F3A1F" stroke-width="2" opacity="0.8"/>
  
  <path d="M320 280 Q350 300 360 330 Q350 360 320 370 Q290 360 280 330 Q290 300 320 280 Z" 
        fill="url(#leaf)" stroke="#1F3A1F" stroke-width="2" opacity="0.8"/>
  
  <!-- Medical cross symbol -->
  <circle cx="400" cy="150" r="40" fill="#E74C3C" stroke="#C0392B" stroke-width="3"/>
  <rect x="385" y="135" width="30" height="8" fill="white" rx="2"/>
  <rect x="395" y="125" width="8" height="30" fill="white" rx="2"/>
  
  <!-- Stethoscope-like curve -->
  <path d="M380 190 Q360 210 340 240 Q330 260 340 280" 
        fill="none" stroke="#E74C3C" stroke-width="6" stroke-linecap="round"/>
  
  <!-- Small diagnostic dots -->
  <circle cx="180" cy="320" r="4" fill="#3498DB"/>
  <circle cx="200" cy="340" r="4" fill="#3498DB"/>
  <circle cx="160" cy="340" r="4" fill="#3498DB"/>
</svg> 